<?xml version="1.0" standalone="no"?>
<!DOCTYPE svg PUBLIC "-//W3C//DTD SVG 20010904//EN"
 "http://www.w3.org/TR/2001/REC-SVG-20010904/DTD/svg10.dtd">
<svg version="1.0" xmlns="http://www.w3.org/2000/svg"
 width="500.000000pt" height="500.000000pt" viewBox="0 0 500.000000 500.000000"
 preserveAspectRatio="xMidYMid meet">
<metadata>
Created by potrace 1.14, written by Peter Selinger 2001-2017
</metadata>
<g transform="translate(0.000000,500.000000) scale(0.100000,-0.100000)"
fill="#000000" stroke="none">
<path d="M0 2500 l0 -2500 2500 0 2500 0 0 2500 0 2500 -2500 0 -2500 0 0
-2500z m1260 367 c0 -2 56 -149 125 -325 69 -177 125 -327 125 -332 0 -6 -28
-10 -63 -10 l-63 0 -64 184 c-36 102 -68 182 -72 178 -3 -4 -31 -79 -62 -167
-30 -88 -58 -168 -61 -177 -6 -15 -19 -18 -72 -18 -58 0 -65 2 -60 18 3 9 32
87 65 172 33 85 88 228 122 318 35 89 67 162 71 162 5 0 9 -2 9 -3z m790 -132
l0 -135 -65 0 -65 0 0 76 0 77 -50 -6 c-122 -15 -187 -76 -197 -184 -10 -108
28 -185 109 -219 32 -13 72 -18 153 -19 l110 -2 3 -61 3 -62 -93 0 c-161 0
-272 35 -340 107 -67 70 -95 213 -64 332 41 161 157 228 394 230 l102 1 0
-135z m540 0 l0 -135 -65 0 -65 0 0 75 0 75 -27 0 c-52 -1 -117 -21 -151 -47
-87 -66 -99 -248 -20 -319 49 -45 88 -57 210 -62 l118 -5 0 -58 0 -59 -92 0
c-171 0 -276 35 -345 114 -50 56 -73 127 -73 220 0 232 123 333 408 335 l102
1 0 -135z m232 -142 l3 -278 38 -3 37 -3 0 -55 0 -55 -142 3 -143 3 0 50 0 50
38 3 37 3 0 280 0 279 65 0 65 0 2 -277z m395 253 c127 -40 195 -137 201 -288
5 -125 -15 -188 -81 -254 -75 -74 -138 -95 -299 -102 l-128 -5 0 137 0 136 65
0 65 0 0 -76 0 -76 56 7 c75 9 115 27 152 69 36 42 46 82 40 171 -3 53 -9 71
-34 101 -39 48 -85 72 -156 80 l-58 7 0 -77 0 -76 -65 0 -65 0 0 136 0 137
128 -6 c74 -3 149 -12 179 -21z m443 -256 l0 -280 35 0 35 0 0 -55 0 -55 -140
0 -140 0 0 55 0 55 40 6 40 7 0 273 0 274 65 0 65 0 0 -280z m488 223 l-3 -58
-170 2 c-93 1 -182 2 -197 2 -27 1 -28 3 -28 56 l0 55 200 0 201 0 -3 -57z
m-138 -398 l0 -215 -60 0 -60 0 0 215 0 215 60 0 60 0 0 -215z m-2065 -368
c13 -10 15 -16 6 -21 -6 -4 -18 -2 -26 4 -19 16 -59 9 -63 -11 -2 -11 12 -20
45 -30 53 -15 67 -43 38 -73 -32 -31 -115 -16 -115 22 0 10 4 10 22 -2 28 -20
62 -20 78 -1 10 12 7 16 -16 26 -60 23 -79 35 -83 54 -7 39 73 61 114 32z
m210 -12 c53 -52 15 -135 -63 -135 -60 0 -101 55 -81 107 14 37 38 52 82 53
27 0 45 -7 62 -25z m107 -42 l3 -68 48 -3 c68 -4 58 -22 -13 -22 l-60 0 0 80
c0 97 18 107 22 13z m178 7 c0 -54 3 -62 24 -71 17 -8 29 -8 45 0 18 10 21 21
21 71 0 47 3 60 15 60 11 0 15 -13 15 -54 0 -69 -26 -106 -75 -106 -49 0 -75
37 -75 106 0 41 4 54 15 54 12 0 15 -13 15 -60z m300 50 c0 -5 -11 -10 -25
-10 -24 0 -25 -2 -25 -70 0 -56 -3 -70 -15 -70 -12 0 -15 14 -15 70 0 68 -1
70 -25 70 -14 0 -25 5 -25 10 0 6 28 10 65 10 37 0 65 -4 65 -10z m140 0 c0
-5 -7 -10 -15 -10 -12 0 -15 -13 -15 -60 0 -47 3 -60 15 -60 8 0 15 -4 15 -10
0 -5 -20 -10 -45 -10 -25 0 -45 5 -45 10 0 6 7 10 15 10 12 0 15 13 15 60 0
47 -3 60 -15 60 -8 0 -15 5 -15 10 0 6 20 10 45 10 25 0 45 -4 45 -10z m195 4
c23 -9 48 -62 41 -90 -16 -64 -104 -87 -151 -39 -68 67 15 165 110 129z m177
-56 l56 -63 -5 63 c-5 53 -3 62 11 62 13 0 16 -13 16 -80 0 -100 -9 -102 -84
-17 l-56 62 7 -62 c5 -54 4 -63 -11 -63 -13 0 -16 12 -16 80 0 57 4 80 13 80
6 0 37 -28 69 -62z m257 49 c16 -20 4 -26 -28 -14 -15 6 -35 7 -45 4 -30 -12
-16 -33 32 -48 37 -11 48 -19 50 -38 5 -31 -21 -51 -63 -51 -34 0 -75 24 -62
36 4 5 17 3 27 -4 26 -16 55 -15 70 3 10 12 7 16 -16 26 -83 32 -100 52 -69
83 20 20 88 21 104 3z"/>
<path d="M2052 2024 c-46 -32 -9 -113 46 -99 37 8 64 42 56 69 -13 45 -61 59
-102 30z"/>
<path d="M2986 2021 c-25 -28 -17 -72 17 -91 24 -13 30 -13 55 0 37 21 43 71
10 94 -30 21 -61 20 -82 -3z"/>
</g>
</svg>
